<?xml version="1.0" standalone="no"?>
<!DOCTYPE svg PUBLIC "-//W3C//DTD SVG 20010904//EN"
 "http://www.w3.org/TR/2001/REC-SVG-20010904/DTD/svg10.dtd">
<svg version="1.0" xmlns="http://www.w3.org/2000/svg"
 width="470.000000pt" height="470.000000pt" viewBox="0 0 470.000000 470.000000"
 preserveAspectRatio="xMidYMid meet">
<metadata>
Created by potrace 1.11, written by Peter Selinger 2001-2013
</metadata>
<g transform="translate(0.000000,470.000000) scale(0.100000,-0.100000)"
fill="#000000" stroke="none">
<path d="M720 4580 l0 -100 -50 0 -50 0 0 -250 0 -250 -50 0 -50 0 0 -350 0
-350 -50 0 -50 0 0 -150 0 -150 -50 0 -50 0 0 -250 0 -250 -50 0 -50 0 0 -50
0 -50 -50 0 -50 0 0 -180 0 -180 50 0 50 0 0 -100 0 -100 180 0 180 0 0 100
c0 93 1 100 20 100 19 0 20 -7 20 -150 l0 -150 50 0 50 0 0 -50 0 -50 100 0
100 0 0 -50 0 -50 80 0 80 0 0 150 c0 143 1 150 20 150 19 0 20 -7 20 -100 l0
-100 50 0 50 0 0 -50 0 -50 80 0 80 0 0 100 c0 93 1 100 20 100 19 0 20 -7 20
-120 l0 -120 -50 0 -50 0 0 -50 0 -50 -50 0 -50 0 0 -50 0 -50 -50 0 -50 0 0
-50 0 -50 -50 0 -50 0 0 -50 0 -50 -50 0 -50 0 0 -50 0 -50 -50 0 -50 0 0 -50
0 -50 -50 0 -50 0 0 -330 0 -330 50 0 50 0 0 -50 0 -50 500 0 500 0 0 -50 0
-50 530 0 530 0 0 50 0 50 50 0 50 0 0 50 0 50 50 0 50 0 0 50 c0 43 3 50 20
50 17 0 20 -7 20 -50 l0 -50 100 0 100 0 0 -50 0 -50 50 0 50 0 0 -50 0 -50
130 0 130 0 0 50 0 50 50 0 50 0 0 200 0 200 50 0 50 0 0 50 0 50 50 0 50 0 0
80 0 80 -50 0 c-43 0 -50 3 -50 20 0 17 7 20 50 20 l50 0 0 50 0 50 50 0 50 0
0 200 0 200 150 0 150 0 0 100 0 100 50 0 50 0 0 180 0 180 -50 0 -50 0 0 120
0 120 50 0 50 0 0 280 0 280 -50 0 -50 0 0 170 0 170 150 0 150 0 0 80 0 80
-100 0 -100 0 0 50 0 50 -50 0 -50 0 0 50 0 50 -50 0 -50 0 0 300 0 300 -100
0 -100 0 0 50 0 50 -200 0 -200 0 0 150 0 150 -50 0 -50 0 0 100 0 100 -130 0
-130 0 0 -50 0 -50 -50 0 -50 0 0 -50 0 -50 -50 0 -50 0 0 -50 0 -50 -50 0
-50 0 0 -50 0 -50 -70 0 -70 0 0 50 0 50 -50 0 -50 0 0 50 0 50 -50 0 -50 0 0
50 0 50 -100 0 -100 0 0 50 0 50 -330 0 -330 0 0 -50 0 -50 -100 0 -100 0 0
-50 0 -50 -100 0 -100 0 0 -50 c0 -43 -3 -50 -20 -50 -17 0 -20 7 -20 50 l0
50 -100 0 -100 0 0 50 0 50 -50 0 -50 0 0 50 0 50 -50 0 -50 0 0 50 0 50 -130
0 -130 0 0 -100z m-200 -1980 c0 -113 -1 -120 -20 -120 -19 0 -20 7 -20 120 0
113 1 120 20 120 19 0 20 -7 20 -120z m3300 -930 l0 -50 50 0 c43 0 50 -3 50
-20 0 -17 -7 -20 -50 -20 l-50 0 0 -100 0 -100 -50 0 -50 0 0 -50 0 -50 -50 0
-50 0 0 -50 0 -50 -70 0 -70 0 0 50 0 50 -50 0 c-43 0 -50 3 -50 20 0 17 7 20
50 20 l50 0 0 100 c0 93 1 100 20 100 17 0 20 -7 20 -50 l0 -50 80 0 80 0 0
50 0 50 50 0 50 0 0 100 c0 93 1 100 20 100 17 0 20 -7 20 -50z m-500 -220 c0
-63 -2 -70 -20 -70 -18 0 -20 7 -20 70 0 63 2 70 20 70 18 0 20 -7 20 -70z
m700 0 c0 -63 -2 -70 -20 -70 -18 0 -20 7 -20 70 0 63 2 70 20 70 18 0 20 -7
20 -70z"/>
</g>
</svg>
